<?xml version="1.0" standalone="no"?>
<!DOCTYPE svg PUBLIC "-//W3C//DTD SVG 20010904//EN"
 "http://www.w3.org/TR/2001/REC-SVG-20010904/DTD/svg10.dtd">
<svg version="1.0" xmlns="http://www.w3.org/2000/svg"
 width="1000.000000pt" height="1000.000000pt" viewBox="0 0 1000.000000 1000.000000"
 preserveAspectRatio="xMidYMid meet">
<metadata>
Created by potrace 1.14, written by Peter Selinger 2001-2017
</metadata>
<g transform="translate(0.000000,1000.000000) scale(0.100000,-0.100000)"
fill="#000000" stroke="none">
<path d="M4730 8777 c-3 -3 -41 -8 -85 -11 -316 -26 -651 -137 -886 -292 -42
-28 -115 -60 -200 -90 -500 -173 -948 -434 -1364 -794 -105 -90 -381 -379
-478 -500 -305 -379 -551 -829 -702 -1285 -79 -238 -150 -551 -170 -746 -4
-30 -8 -61 -10 -69 -27 -102 -27 -790 0 -953 2 -12 9 -60 15 -107 28 -208 110
-545 184 -757 303 -857 871 -1586 1621 -2077 194 -128 354 -214 612 -332 359
-163 835 -284 1283 -324 162 -15 540 -15 700 0 1439 131 2672 971 3315 2260
223 447 372 975 412 1460 10 122 10 610 0 718 -6 75 -12 116 -33 267 -62 444
-250 983 -486 1394 -106 186 -312 486 -395 576 -10 11 -36 43 -58 70 -67 84
-329 345 -441 440 -396 335 -843 593 -1295 750 -74 25 -129 53 -189 94 -47 32
-130 81 -185 108 -93 47 -301 126 -363 138 -247 49 -323 58 -557 62 -133 2
-243 2 -245 0z"/>
</g>
</svg>
